<?xml version="1.0" standalone="no"?>
<!DOCTYPE svg PUBLIC "-//W3C//DTD SVG 20010904//EN"
 "http://www.w3.org/TR/2001/REC-SVG-20010904/DTD/svg10.dtd">
<svg version="1.0" xmlns="http://www.w3.org/2000/svg"
 width="64.000000pt" height="64.000000pt" viewBox="0 0 64.000000 64.000000"
 preserveAspectRatio="xMidYMid meet">

<g transform="translate(0.000000,64.000000) scale(0.100000,-0.100000)"
fill="#000000" stroke="none">
<path d="M392 611 c-20 -12 -214 -540 -207 -562 7 -21 35 -32 58 -23 9 3 27
36 41 72 97 259 176 474 176 482 0 13 -29 40 -43 40 -7 0 -18 -4 -25 -9z m44
-26 c6 -14 -148 -449 -183 -517 -15 -31 -40 -37 -50 -12 -5 14 169 505 190
532 13 17 36 15 43 -3z"/>
<path d="M72 407 c-39 -40 -72 -79 -72 -87 0 -20 141 -160 161 -160 21 0 39
20 39 44 0 11 -21 42 -47 68 l-47 48 47 48 c47 48 57 78 35 100 -23 23 -44 12
-116 -61z m115 36 c3 -7 -19 -37 -48 -68 l-52 -55 52 -55 c53 -56 60 -77 26
-83 -20 -5 -145 114 -145 137 0 25 122 142 144 139 11 -2 21 -9 23 -15z"/>
<path d="M452 468 c-22 -22 -12 -52 35 -100 l47 -48 -47 -48 c-26 -26 -47 -57
-47 -68 0 -24 18 -44 39 -44 20 0 161 140 161 160 0 20 -141 160 -161 160 -8
0 -20 -5 -27 -12z m105 -70 c35 -34 63 -69 63 -77 0 -22 -121 -141 -143 -141
-39 0 -30 31 24 86 l53 54 -53 54 c-36 36 -52 60 -48 70 12 30 41 16 104 -46z"/>
</g>
</svg>
